<svg width="20" height="19" viewBox="0 0 20 19" fill="none" xmlns="http://www.w3.org/2000/svg">
<path d="M10.0007 1.52898C12.3497 -0.58002 15.9797 -0.51002 18.2427 1.75698C20.5047 4.02498 20.5827 7.63698 18.4787 9.99298L9.99867 18.485L1.52067 9.99298C-0.58333 7.63698 -0.504329 4.01898 1.75667 1.75698C4.02167 -0.50702 7.64467 -0.58302 10.0007 1.52898ZM16.8267 3.16998C15.3267 1.66798 12.9067 1.60698 11.3367 3.01698L10.0017 4.21498L8.66567 3.01798C7.09067 1.60598 4.67567 1.66798 3.17167 3.17198C1.68167 4.66198 1.60667 7.04698 2.97967 8.62298L9.99967 15.654L17.0197 8.62398C18.3937 7.04698 18.3187 4.66498 16.8267 3.16998Z" fill="#000"/>
</svg>
