<svg width="29" height="22" viewBox="0 0 29 22" fill="none" xmlns="http://www.w3.org/2000/svg">
<path d="M26.5833 0H2.41669C1.08382 0 0 1.08382 0 2.41669V19.3334C0 20.6662 1.08382 21.75 2.41669 21.75H26.5834C27.9162 21.75 29 20.6662 29 19.3333V2.41669C29 1.08382 27.9162 0 26.5833 0ZM2.41669 1.20831H26.5834C26.6724 1.20831 26.7509 1.24077 26.8344 1.25912C24.7422 3.17397 17.8046 9.52067 15.3768 11.7081C15.1868 11.8792 14.8806 12.0833 14.5001 12.0833C14.1195 12.0833 13.8133 11.8792 13.6227 11.7075C11.1951 9.52044 4.25717 3.1734 2.16526 1.25923C2.24897 1.24088 2.32759 1.20831 2.41669 1.20831ZM1.20831 19.3333V2.41669C1.20831 2.29831 1.244 2.19092 1.27594 2.08273C2.87729 3.54837 7.71802 7.97676 10.8568 10.831C7.72822 13.5185 2.88624 18.1091 1.27215 19.6482C1.24366 19.5455 1.20831 19.445 1.20831 19.3333ZM26.5833 20.5417H2.41669C2.32017 20.5417 2.23436 20.508 2.14424 20.4865C3.81214 18.8965 8.68493 14.2795 11.7585 11.6501C12.1592 12.0135 12.5252 12.3449 12.8138 12.6049C13.3117 13.0545 13.8946 13.2917 14.5 13.2917C15.1054 13.2917 15.6883 13.0545 16.1856 12.6055C16.4743 12.3454 16.8406 12.0137 17.2415 11.6501C20.3152 14.2792 25.1873 18.8959 26.8558 20.4865C26.7656 20.508 26.6799 20.5417 26.5833 20.5417ZM27.7917 19.3333C27.7917 19.445 27.7563 19.5455 27.7279 19.6482C26.1132 18.1083 21.2718 13.5182 18.1432 10.8311C21.2821 7.97681 26.1221 3.54882 27.7241 2.08262C27.756 2.1908 27.7917 2.29825 27.7917 2.41663V19.3333Z" fill="#000"/>
</svg>
