<svg width="16" height="22" viewBox="0 0 16 22" fill="none" xmlns="http://www.w3.org/2000/svg">
<path d="M14.7031 15.1078C15.2961 15.1078 15.7773 14.6266 15.7773 14.0336V3.66523C15.7773 1.6457 14.1316 0 12.1121 0H3.88789C1.86836 0 0.222656 1.6457 0.222656 3.66523V18.3391C0.222656 20.3586 1.86836 22.0043 3.88789 22.0043H12.1164C14.1359 22.0043 15.7816 20.3586 15.7816 18.3391C15.7816 17.7461 15.3004 17.2648 14.7074 17.2648C14.1145 17.2648 13.6332 17.7461 13.6332 18.3391C13.6332 19.1727 12.9543 19.8559 12.1164 19.8559H3.88789C3.0543 19.8559 2.37109 19.177 2.37109 18.3391V3.66523C2.37109 2.83164 3.05 2.14844 3.88789 2.14844H12.1164C12.95 2.14844 13.6332 2.82734 13.6332 3.66523V14.0336C13.6289 14.6266 14.1102 15.1078 14.7031 15.1078Z" fill="#000"/>
<path d="M6.67657 15.6536C6.08361 15.6536 5.60236 16.1348 5.60236 16.7278C5.60236 17.3208 6.08361 17.802 6.67657 17.802H9.32345C9.91641 17.802 10.3977 17.3208 10.3977 16.7278C10.3977 16.1348 9.91641 15.6536 9.32345 15.6536H6.67657Z" fill="#000"/>
</svg>
