<svg width="13" height="18" viewBox="0 0 13 18" fill="none" xmlns="http://www.w3.org/2000/svg">
<path d="M12.8333 17.4166H11.25V15.8333C11.25 15.2034 10.9998 14.5993 10.5544 14.1539C10.109 13.7085 9.50488 13.4583 8.87499 13.4583H4.12499C3.4951 13.4583 2.89101 13.7085 2.44561 14.1539C2.00021 14.5993 1.74999 15.2034 1.74999 15.8333V17.4166H0.166656V15.8333C0.166656 14.7835 0.583694 13.7767 1.32603 13.0343C2.06836 12.292 3.07517 11.875 4.12499 11.875H8.87499C9.9248 11.875 10.9316 12.292 11.674 13.0343C12.4163 13.7767 12.8333 14.7835 12.8333 15.8333V17.4166ZM6.49999 10.2916C5.87621 10.2916 5.25854 10.1688 4.68224 9.93005C4.10595 9.69134 3.58231 9.34146 3.14123 8.90038C2.70015 8.45931 2.35027 7.93567 2.11156 7.35937C1.87285 6.78308 1.74999 6.16541 1.74999 5.54163C1.74999 4.91785 1.87285 4.30018 2.11156 3.72388C2.35027 3.14758 2.70015 2.62395 3.14123 2.18287C3.58231 1.74179 4.10595 1.39191 4.68224 1.1532C5.25854 0.914488 5.87621 0.791626 6.49999 0.791626C7.75977 0.791626 8.96795 1.29207 9.85875 2.18287C10.7495 3.07367 11.25 4.28185 11.25 5.54163C11.25 6.8014 10.7495 8.00959 9.85875 8.90038C8.96795 9.79118 7.75977 10.2916 6.49999 10.2916ZM6.49999 8.70829C7.33984 8.70829 8.1453 8.37466 8.73916 7.7808C9.33303 7.18693 9.66666 6.38148 9.66666 5.54163C9.66666 4.70177 9.33303 3.89632 8.73916 3.30245C8.1453 2.70859 7.33984 2.37496 6.49999 2.37496C5.66014 2.37496 4.85468 2.70859 4.26082 3.30245C3.66695 3.89632 3.33332 4.70177 3.33332 5.54163C3.33332 6.38148 3.66695 7.18693 4.26082 7.7808C4.85468 8.37466 5.66014 8.70829 6.49999 8.70829Z" fill="#000"/>
</svg>
