<?xml version="1.0" standalone="no"?>
<!DOCTYPE svg PUBLIC "-//W3C//DTD SVG 20010904//EN"
 "http://www.w3.org/TR/2001/REC-SVG-20010904/DTD/svg10.dtd">
<svg version="1.0" xmlns="http://www.w3.org/2000/svg"
 width="4096.000000pt" height="4096.000000pt" viewBox="0 0 4096.000000 4096.000000"
 preserveAspectRatio="xMidYMid meet">
<metadata>
Created by potrace 1.14, written by Peter Selinger 2001-2017
</metadata>
<g transform="translate(0.000000,4096.000000) scale(0.100000,-0.100000)"
fill="#000000" stroke="none">
<path d="M15238 35116 c-1 -2 -75 -6 -163 -10 -88 -3 -171 -8 -185 -10 -14 -3
-52 -7 -85 -11 -33 -3 -69 -8 -80 -10 -11 -3 -36 -7 -55 -10 -241 -35 -561
-126 -797 -225 -230 -97 -561 -281 -688 -382 -5 -4 -53 -40 -105 -80 -52 -40
-100 -77 -107 -83 -6 -5 -43 -37 -81 -70 -88 -76 -8872 -8862 -8968 -8970 -86
-97 -235 -272 -289 -340 -22 -27 -42 -52 -45 -55 -6 -5 -118 -156 -188 -252
-44 -60 -227 -331 -233 -345 -2 -4 -41 -70 -86 -145 -46 -76 -83 -142 -83
-147 0 -5 -3 -11 -8 -13 -23 -10 -266 -501 -357 -723 -20 -49 -41 -99 -45
-110 -85 -197 -271 -769 -296 -909 -3 -16 -7 -32 -9 -36 -2 -4 -7 -20 -9 -36
-3 -16 -8 -38 -10 -49 -18 -75 -77 -367 -81 -398 -3 -21 -7 -48 -10 -60 -3
-12 -7 -38 -9 -57 -2 -19 -7 -46 -10 -60 -3 -14 -8 -47 -11 -75 -3 -27 -7 -61
-9 -75 -4 -23 -8 -60 -21 -190 -2 -25 -7 -67 -9 -95 -15 -151 -21 -312 -21
-590 0 -324 7 -494 30 -710 3 -27 8 -75 11 -105 5 -48 36 -278 50 -365 2 -16
15 -86 29 -155 13 -69 27 -141 30 -160 9 -49 95 -399 106 -427 5 -13 11 -34
13 -47 13 -70 137 -437 218 -646 92 -237 281 -639 389 -830 151 -267 261 -441
453 -715 92 -131 297 -389 410 -516 23 -25 72 -80 110 -123 149 -167 437 -444
672 -646 119 -103 364 -291 509 -391 44 -31 110 -77 147 -102 38 -26 71 -47
74 -47 3 0 31 -17 62 -39 57 -39 258 -161 265 -161 2 0 44 -23 93 -51 83 -48
398 -205 524 -262 30 -14 76 -34 102 -46 26 -11 49 -21 53 -21 3 0 24 -9 48
-19 220 -99 835 -297 1066 -342 23 -5 59 -13 80 -18 20 -6 52 -13 71 -16 19
-3 42 -8 50 -10 35 -11 298 -57 405 -71 17 -2 45 -6 62 -9 18 -3 57 -8 85 -11
29 -3 64 -7 78 -10 14 -2 56 -6 95 -9 38 -4 84 -8 102 -10 200 -27 956 -27
1223 0 129 13 258 27 281 31 14 2 43 6 64 9 86 11 127 17 260 40 192 34 184
33 335 66 122 27 163 37 280 69 337 92 633 194 935 322 388 164 780 374 1123
600 231 153 579 413 698 523 6 5 40 35 75 65 35 30 93 82 129 115 146 133
11548 11537 11616 11618 93 111 158 206 222 329 49 93 129 295 139 348 2 14
10 50 18 80 48 197 55 510 15 710 -6 30 -13 66 -16 80 -15 83 -75 254 -126
360 -40 84 -111 210 -135 240 -6 8 -33 44 -60 80 -60 82 -249 273 -328 330
-156 115 -275 182 -430 243 -94 38 -287 91 -365 101 -25 3 -70 9 -100 13 -69
8 -276 9 -355 0 -114 -12 -151 -19 -265 -47 -250 -63 -471 -172 -675 -335 -38
-31 -2655 -2640 -5815 -5798 -3160 -3159 -5785 -5777 -5835 -5818 -185 -155
-323 -252 -540 -382 -66 -39 -375 -187 -460 -220 -101 -39 -270 -97 -295 -102
-10 -2 -48 -12 -86 -23 -118 -35 -316 -75 -429 -87 -27 -3 -57 -8 -65 -10
-101 -27 -692 -27 -860 0 -14 2 -45 7 -70 10 -25 3 -67 9 -95 15 -27 5 -61 12
-75 14 -22 4 -82 16 -148 30 -13 3 -32 8 -42 11 -10 3 -29 8 -41 10 -74 14
-378 118 -489 167 -163 72 -410 201 -458 238 -13 11 -31 20 -38 20 -8 0 -14 5
-14 10 0 6 -5 10 -11 10 -6 0 -28 14 -49 30 -21 17 -41 30 -44 30 -15 0 -246
182 -355 279 -464 414 -811 938 -1009 1526 -30 90 -96 334 -105 390 -3 17 -10
50 -15 75 -6 25 -13 65 -16 90 -3 25 -8 59 -11 75 -23 141 -30 254 -30 505 0
207 6 328 19 395 2 11 7 52 12 90 4 39 8 72 9 75 1 6 16 84 22 120 10 60 75
313 102 395 111 345 292 704 486 971 45 61 119 158 125 164 3 3 25 30 50 60
24 30 63 75 85 100 22 24 2553 2557 5624 5629 l5583 5584 -53 51 c-47 44 -180
162 -216 191 -7 6 -19 15 -26 21 -8 7 -62 47 -120 90 -307 228 -681 416 -1065
534 -57 18 -109 33 -115 34 -22 5 -72 17 -107 26 -19 5 -48 11 -65 14 -16 3
-41 8 -55 11 -69 15 -212 36 -270 41 -36 3 -71 8 -79 10 -8 3 -82 7 -165 10
-83 3 -156 7 -163 9 -6 2 -13 2 -15 1z"/>
<path d="M24197 35114 c-1 -1 -90 -4 -197 -8 -107 -3 -220 -8 -250 -10 -30 -3
-89 -8 -130 -11 -75 -5 -101 -8 -240 -25 -41 -6 -95 -12 -120 -15 -25 -3 -56
-7 -70 -10 -14 -3 -41 -7 -60 -10 -363 -57 -784 -159 -1130 -275 -125 -42
-397 -142 -435 -160 -11 -5 -56 -25 -100 -43 -171 -73 -217 -94 -420 -196
-227 -114 -522 -285 -742 -432 -113 -75 -434 -308 -453 -329 -3 -3 -40 -34
-84 -69 -147 -119 -280 -235 -410 -361 -274 -263 -11501 -11499 -11547 -11556
-343 -420 -477 -975 -363 -1499 132 -605 560 -1089 1152 -1301 50 -18 92 -31
92 -28 0 2 16 -2 35 -10 19 -8 35 -13 35 -11 0 2 15 -1 33 -6 84 -24 252 -43
387 -43 401 1 762 125 1092 375 55 42 2043 2023 5803 5782 3146 3146 5756
5752 5800 5791 89 81 244 205 320 257 28 19 52 36 55 40 34 37 456 269 595
326 330 135 680 229 960 258 33 3 69 8 80 10 31 6 247 17 348 17 96 1 325 -10
367 -16 14 -3 51 -7 84 -11 32 -4 68 -8 80 -10 161 -27 231 -41 350 -71 78
-20 151 -39 164 -41 12 -3 25 -9 28 -14 3 -5 16 -9 30 -9 13 0 32 -4 42 -9 9
-6 69 -28 132 -51 235 -85 592 -277 803 -432 128 -93 251 -194 346 -285 52
-48 117 -110 145 -136 229 -217 583 -396 876 -443 14 -2 35 -6 47 -9 138 -31
457 -24 638 15 185 39 283 73 438 150 82 41 259 149 277 169 3 3 30 26 60 51
348 282 581 713 636 1175 10 85 11 277 3 349 -4 34 -10 79 -13 101 -12 104
-57 273 -107 405 -26 69 -122 247 -177 328 -87 131 -204 259 -421 462 -20 18
-185 164 -228 202 -163 140 -432 344 -628 475 -146 97 -314 203 -322 203 -4 0
-14 6 -22 14 -9 8 -38 26 -66 41 -27 15 -86 47 -130 71 -601 334 -1276 582
-1995 734 -25 5 -55 11 -66 14 -12 2 -38 7 -58 10 -20 3 -52 9 -72 12 -20 3
-46 8 -58 10 -28 6 -61 11 -117 18 -25 4 -57 9 -70 11 -21 3 -116 15 -243 30
-22 2 -76 7 -120 11 -45 3 -97 8 -116 10 -30 3 -120 6 -483 18 -37 1 -68 1
-70 0z"/>
<path d="M31459 27576 c-2 -2 -60 -7 -129 -10 -69 -4 -143 -9 -165 -11 -22 -2
-65 -6 -95 -9 -164 -16 -381 -47 -570 -81 -160 -29 -176 -33 -198 -39 -9 -3
-28 -7 -42 -10 -91 -16 -378 -88 -422 -105 -16 -6 -28 -8 -28 -5 0 4 -6 2 -12
-4 -7 -5 -29 -13 -48 -17 -96 -20 -599 -200 -761 -273 -24 -11 -78 -34 -119
-52 -230 -100 -548 -269 -815 -433 -135 -83 -424 -276 -445 -297 -3 -3 -41
-32 -85 -64 -73 -54 -323 -252 -335 -265 -3 -3 -41 -37 -85 -76 -44 -38 -100
-88 -125 -110 -95 -83 -11555 -11544 -11619 -11620 -159 -186 -303 -456 -357
-665 -46 -181 -65 -318 -64 -480 0 -111 6 -214 15 -258 3 -15 8 -43 11 -62 3
-19 10 -53 16 -75 5 -22 12 -48 14 -59 20 -105 110 -319 193 -458 265 -445
723 -758 1231 -842 181 -30 434 -28 613 4 176 32 387 108 544 195 60 34 222
141 233 154 3 4 21 19 40 34 19 16 2620 2612 5780 5770 3160 3158 5774 5767
5810 5799 354 308 758 540 1200 688 127 43 337 101 410 113 14 3 63 12 110 21
47 8 108 18 135 21 28 3 59 8 70 10 123 25 689 25 826 0 9 -2 40 -6 70 -10 49
-6 194 -30 244 -42 11 -2 31 -6 45 -9 64 -12 265 -69 360 -101 691 -235 1276
-661 1720 -1253 114 -151 211 -311 331 -540 21 -40 59 -125 101 -225 30 -71
126 -350 133 -387 3 -12 9 -35 15 -52 5 -17 14 -51 19 -76 5 -25 12 -56 15
-70 29 -123 60 -334 73 -495 13 -168 7 -541 -12 -665 -2 -14 -9 -61 -15 -105
-92 -660 -380 -1296 -817 -1806 -54 -62 -2611 -2626 -5682 -5697 l-5584 -5584
55 -51 c110 -104 154 -143 198 -177 25 -19 47 -37 50 -40 14 -16 176 -134 255
-185 50 -32 102 -67 117 -77 15 -10 30 -18 34 -18 3 0 18 -9 34 -20 28 -20
323 -170 334 -170 3 0 25 -9 49 -20 130 -59 435 -161 562 -186 11 -2 31 -6 45
-9 14 -3 36 -8 50 -10 14 -3 48 -10 75 -16 28 -6 61 -12 75 -13 14 -2 43 -6
65 -10 22 -4 56 -8 75 -11 19 -2 64 -7 100 -12 136 -16 638 -9 775 12 17 3 48
7 70 10 71 10 173 28 275 50 41 9 188 47 210 54 14 5 52 17 85 26 170 48 596
235 673 295 14 11 29 20 34 20 9 0 84 46 212 132 109 73 311 234 403 321 231
217 8849 8845 8957 8967 103 116 242 284 380 460 113 145 341 489 460 695 48
83 93 161 101 175 26 42 221 440 258 525 52 117 145 347 173 429 56 160 115
332 119 351 3 11 16 58 30 105 27 88 117 445 131 515 4 22 8 45 10 50 10 47
58 317 68 395 3 19 7 51 10 70 3 19 8 58 11 85 3 28 8 64 10 80 2 17 6 59 10
95 3 36 8 83 10 105 20 192 27 776 12 1020 -8 150 -33 407 -52 541 -3 19 -7
51 -10 72 -3 20 -7 44 -10 52 -2 8 -6 35 -9 60 -18 141 -104 537 -157 725
-141 500 -297 902 -524 1350 -161 318 -363 649 -569 934 -56 78 -341 440 -355
451 -3 3 -35 39 -71 80 -298 342 -646 665 -1065 988 -68 52 -224 162 -320 225
-66 44 -131 87 -145 96 -14 10 -70 45 -125 78 -627 377 -1274 645 -1980 820
-11 2 -38 9 -60 13 -22 5 -49 11 -60 14 -90 21 -177 40 -215 47 -85 15 -215
38 -255 44 -22 3 -51 8 -65 10 -40 7 -260 34 -315 39 -155 15 -186 18 -245 23
-80 6 -795 14 -801 9z"/>
<path d="M31687 22254 c-1 -1 -38 -5 -81 -8 -43 -4 -88 -8 -100 -11 -12 -3
-33 -7 -48 -10 -145 -27 -250 -59 -388 -118 -121 -52 -240 -121 -360 -210 -75
-56 -1318 -1293 -5840 -5813 -3160 -3158 -5785 -5778 -5835 -5821 -337 -294
-742 -527 -1175 -675 -109 -38 -379 -111 -452 -123 -18 -3 -55 -10 -83 -15
-66 -12 -106 -18 -185 -25 -36 -4 -70 -8 -77 -10 -14 -5 -279 -18 -348 -18
-70 0 -337 13 -361 17 -10 2 -46 7 -79 10 -60 7 -258 40 -305 52 -28 7 -84 20
-117 28 -131 30 -366 106 -464 149 -19 8 -68 29 -109 47 -180 78 -433 218
-555 305 -203 146 -360 274 -506 416 -96 93 -120 114 -189 167 -30 23 -59 46
-65 50 -41 32 -178 110 -265 150 -183 86 -342 132 -550 159 -71 9 -306 9 -390
0 -58 -6 -84 -10 -155 -22 -127 -21 -394 -116 -495 -175 -225 -132 -359 -240
-508 -410 -189 -216 -336 -512 -392 -790 -29 -147 -31 -165 -35 -330 -10 -425
119 -810 384 -1145 106 -134 416 -427 660 -625 23 -19 53 -43 64 -54 126 -108
547 -402 767 -533 462 -276 1032 -536 1465 -668 50 -15 108 -34 130 -41 81
-28 355 -101 445 -119 8 -2 33 -8 55 -13 22 -6 54 -13 70 -16 17 -3 77 -15
135 -26 150 -30 342 -61 460 -75 25 -3 56 -7 70 -10 14 -2 59 -7 100 -10 41
-4 86 -9 100 -10 14 -2 72 -6 130 -10 58 -3 130 -8 160 -10 142 -11 696 -4
850 10 36 3 92 8 125 10 61 5 131 13 195 21 19 2 52 6 74 9 89 11 183 24 221
31 10 2 37 6 60 9 150 22 612 127 795 181 200 60 529 171 610 207 19 8 103 43
185 77 229 95 564 262 789 393 48 29 107 63 130 76 101 58 396 260 561 383
239 180 345 269 610 511 41 38 11437 11431 11501 11499 197 207 346 480 419
768 15 58 29 116 31 130 19 122 23 180 19 350 -3 162 -8 216 -29 317 -149 701
-694 1244 -1390 1383 -63 13 -74 14 -176 26 -57 6 -258 12 -263 8z"/>
</g>
</svg>
